HIERARCHY
ROOT Hips
{
  OFFSET 0.0421244 104.207 2.34514
  CHANNELS 6 Xposition Yposition Zposition Zrotation Xrotation Yrotation
  End Site
  {
    OFFSET 0 0 0
  }
}
MOTION
Frames:	143
Frame Time:	0.0333333
0.0421244 104.207 2.34514 -0.0420073 -2.75565 0.46937 
0.0446039 104.21 2.37275 -0.0449358 -2.78261 0.439959 
0.0410483 104.211 2.39826 -0.0482662 -2.80856 0.400693 
0.0393156 104.211 2.41719 -0.0502195 -2.80612 0.366292 
0.0305116 104.211 2.43133 -0.0485684 -2.7944 0.334938 
0.0288728 104.212 2.44846 -0.0333009 -2.80506 0.317748 
0.0254544 104.215 2.4722 -0.0267583 -2.81278 0.290186 
0.0175868 104.213 2.4942 -0.0257761 -2.80106 0.274875 
0.00836418 104.211 2.51151 0.00550528 -2.79592 0.270172 
-0.00582404 104.209 2.53232 0.029972 -2.78534 0.237237 
-0.0297044 104.206 2.56264 0.0605249 -2.74383 0.235203 
-0.0547126 104.205 2.60251 0.0810882 -2.68103 0.294349 
-0.0678786 104.206 2.64075 0.105641 -2.61115 0.322816 
-0.0688947 104.208 2.68589 0.108376 -2.52792 0.256256 
-0.0569028 104.207 2.73409 0.0696578 -2.47859 0.140544 
-0.00320792 104.208 2.78248 0.0471878 -2.51577 -0.067492 
0.0693875 104.21 2.8191 0.0278385 -2.5585 -0.325852 
0.150214 104.214 2.83873 -0.00380902 -2.62452 -0.53234 
0.237015 104.216 2.8485 -0.0234537 -2.70215 -0.66563 
0.309857 104.217 2.85914 -0.0421654 -2.79089 -0.730006 
0.357943 104.218 2.87356 -0.068257 -2.88532 -0.771458 
0.380277 104.223 2.88967 -0.0776175 -2.99152 -0.776879 
0.38097 104.23 2.90626 -0.0830579 -3.0839 -0.787232 
0.357889 104.243 2.93058 -0.0890905 -3.138 -0.825471 
0.308315 104.256 2.96457 -0.0550751 -3.1522 -0.918876 
0.2275 104.269 3.02899 -0.0129992 -3.19242 -1.03256 
0.127786 104.278 3.11135 -0.013955 -3.2248 -1.18395 
0.0129361 104.283 3.20086 -0.0805369 -3.25543 -1.42457 
-0.0929056 104.284 3.28466 -0.158118 -3.25006 -1.81236 
-0.175353 104.278 3.37124 -0.197712 -3.26176 -2.14974 
-0.249582 104.28 3.45982 -0.255186 -3.30816 -2.37762 
-0.303239 104.275 3.52489 -0.308981 -3.33639 -2.47448 
-0.332056 104.267 3.56948 -0.391064 -3.35269 -2.44762 
-0.336963 104.252 3.61591 -0.495382 -3.24816 -1.99954 
-0.297422 104.241 3.65178 -0.526495 -3.04513 -1.21429 
-0.219186 104.242 3.68798 -0.44451 -2.85214 -0.286849 
-0.11468 104.242 3.72055 -0.305415 -2.67423 0.59179 
0.00723148 104.243 3.77006 -0.112796 -2.60587 1.27778 
0.117707 104.241 3.81251 0.0178502 -2.59293 1.79371 
0.195528 104.227 3.85632 0.0291282 -2.53632 2.17849 
0.271881 104.216 3.92623 0.00167107 -2.55075 2.23573 
0.331146 104.211 3.99093 -0.0782925 -2.62672 2.12458 
0.385363 104.209 4.03821 -0.103082 -2.59716 1.9094 
0.421095 104.212 4.07211 -0.0279356 -2.54909 1.64449 
0.458782 104.207 4.10667 0.0125059 -2.49756 1.09236 
0.499342 104.195 4.11095 -0.0610272 -2.52974 0.0338444 
0.560101 104.196 4.11452 -0.156481 -2.62939 -1.28668 
0.599433 104.191 4.09571 -0.265679 -2.60533 -2.68223 
0.607843 104.197 4.07687 -0.403715 -2.49187 -3.92564 
0.594976 104.21 4.06172 -0.501622 -2.37677 -4.86554 
0.585572 104.211 4.05826 -0.627161 -2.27239 -5.61443 
0.5615 104.202 4.07179 -0.769654 -2.18591 -6.1038 
0.535945 104.196 4.10073 -0.88838 -2.13424 -6.34237 
0.508385 104.192 4.13223 -0.994169 -2.10455 -6.3833 
0.512245 104.191 4.18735 -1.04861 -2.08645 -6.179 
0.524742 104.181 4.23611 -1.11763 -2.02578 -5.76704 
0.572806 104.165 4.28994 -1.17811 -1.99284 -5.21241 
0.64442 104.161 4.34819 -1.17842 -2.01221 -4.61796 
0.721724 104.167 4.41868 -1.10544 -2.06051 -4.07431 
0.781838 104.174 4.46761 -1.00269 -2.17071 -3.40952 
0.824577 104.181 4.48308 -0.92778 -2.28608 -2.63968 
0.830121 104.178 4.47757 -0.897716 -2.36005 -1.80475 
0.823783 104.168 4.44927 -0.879042 -2.40239 -1.06804 
0.805043 104.157 4.39317 -0.867827 -2.34384 -0.517777 
0.768148 104.165 4.33789 -0.802667 -2.22793 0.0476519 
0.723279 104.172 4.29663 -0.75606 -2.11097 0.461433 
0.666431 104.178 4.24628 -0.704452 -1.99697 0.742266 
0.599761 104.183 4.19101 -0.660097 -1.90495 0.862317 
0.5389 104.184 4.10993 -0.582931 -1.85127 0.612865 
0.483459 104.183 4.01905 -0.511275 -1.89909 -0.00133509 
0.42525 104.189 3.91907 -0.447911 -1.99726 -0.790118 
0.355437 104.201 3.80671 -0.383225 -2.07586 -1.57681 
0.263364 104.21 3.68317 -0.355155 -2.05766 -2.16324 
0.153756 104.221 3.55562 -0.350158 -1.99989 -2.41014 
-0.00127255 104.223 3.44161 -0.344994 -1.98111 -2.35918 
-0.173621 104.218 3.33321 -0.355946 -2.00388 -2.21525 
-0.313461 104.224 3.24318 -0.259534 -2.18035 -2.10456 
-0.48784 104.219 3.14194 -0.267887 -2.26594 -2.03756 
-0.659076 104.207 3.02827 -0.282048 -2.34808 -1.93101 
-0.81609 104.2 2.92195 -0.30841 -2.42415 -1.74147 
-0.956259 104.194 2.80262 -0.265396 -2.46199 -1.37742 
-1.05878 104.194 2.70142 -0.152267 -2.4817 -0.880272 
-1.14479 104.19 2.58961 -0.0113628 -2.44148 -0.405301 
-1.21691 104.192 2.49607 0.0653673 -2.49246 0.0709602 
-1.26518 104.181 2.39715 0.200403 -2.48533 0.541997 
-1.31509 104.17 2.31044 0.319815 -2.43273 1.00649 
-1.37768 104.163 2.22542 0.416558 -2.4281 1.37075 
-1.45254 104.153 2.14245 0.438891 -2.41174 1.54319 
-1.48813 104.138 2.04714 0.48952 -2.4089 1.53115 
-1.523 104.13 1.94837 0.536622 -2.51391 1.24731 
-1.56754 104.134 1.88748 0.464514 -2.78369 0.761902 
-1.60487 104.132 1.83164 0.388589 -2.98509 0.180918 
-1.64692 104.121 1.7482 0.365873 -3.06136 -0.40597 
-1.69722 104.112 1.66584 0.359368 -3.07914 -0.897127 
-1.74473 104.105 1.57759 0.359324 -3.09262 -1.33703 
-1.80811 104.101 1.50871 0.351002 -3.13385 -1.67557 
-1.85878 104.098 1.44473 0.359105 -3.17749 -1.90336 
-1.91268 104.092 1.40281 0.369658 -3.22486 -2.06921 
-1.96607 104.083 1.35449 0.370167 -3.25589 -2.25252 
-2.00749 104.082 1.29625 0.398076 -3.30755 -2.43744 
-2.06009 104.093 1.23888 0.377549 -3.32734 -2.64697 
-2.12262 104.121 1.17516 0.309852 -3.34774 -2.77852 
-2.18172 104.153 1.12403 0.258383 -3.39077 -2.83699 
-2.23735 104.17 1.07355 0.221282 -3.51942 -2.96538 
-2.27134 104.167 1.0412 0.213629 -3.61217 -3.04432 
-2.28122 104.16 1.02644 0.21792 -3.64327 -3.04964 
-2.27635 104.16 1.02776 0.226845 -3.63461 -3.0161 
-2.24032 104.169 1.054 0.251616 -3.60437 -2.89183 
-2.16403 104.184 1.10934 0.311465 -3.57261 -2.75147 
-2.07334 104.199 1.1742 0.339068 -3.53023 -2.56885 
-1.97115 104.206 1.24432 0.386447 -3.50569 -2.28946 
-1.84349 104.199 1.3259 0.426228 -3.48775 -2.01121 
-1.72647 104.193 1.41933 0.441913 -3.4666 -1.68546 
-1.61273 104.189 1.50046 0.426773 -3.42344 -1.42427 
-1.50781 104.194 1.59469 0.390658 -3.36181 -1.14347 
-1.4121 104.193 1.66982 0.385236 -3.26464 -0.865363 
-1.32586 104.191 1.74855 0.370682 -3.24605 -0.581919 
-1.24248 104.186 1.81236 0.369045 -3.26282 -0.341957 
-1.15893 104.182 1.86392 0.311188 -3.25408 -0.200195 
-1.05804 104.186 1.91785 0.253487 -3.29984 -0.0967679 
-0.947334 104.189 1.95452 0.224609 -3.24441 -0.065827 
-0.829949 104.195 1.99856 0.197453 -3.12673 -0.0196029 
-0.708003 104.197 2.03407 0.199073 -2.96107 0.0486491 
-0.584132 104.199 2.07567 0.21431 -2.84573 0.116835 
-0.467475 104.202 2.12556 0.201291 -2.796 0.203292 
-0.353788 104.203 2.16109 0.205495 -2.77537 0.315183 
-0.253116 104.204 2.18304 0.208566 -2.77314 0.430074 
-0.162009 104.203 2.19644 0.209971 -2.76186 0.497454 
-0.0794206 104.203 2.20665 0.229239 -2.76626 0.582506 
-0.0124301 104.205 2.2192 0.223435 -2.75263 0.674278 
0.0372978 104.206 2.22843 0.236251 -2.72622 0.818081 
0.0767841 104.206 2.23776 0.23097 -2.74782 0.935521 
0.111491 104.207 2.23972 0.214801 -2.78511 1.03156 
0.136448 104.206 2.23816 0.193594 -2.80055 1.06505 
0.154635 104.204 2.23884 0.18213 -2.80693 1.06571 
0.163055 104.202 2.23918 0.177439 -2.78674 1.03732 
0.165354 104.2 2.24375 0.170957 -2.7463 0.975621 
0.162538 104.202 2.25357 0.150095 -2.71508 0.903524 
0.150204 104.206 2.26716 0.113661 -2.7197 0.828633 
0.133763 104.207 2.28526 0.0672354 -2.72058 0.751195 
0.107193 104.205 2.30026 0.0373286 -2.72407 0.664367 
0.0747463 104.203 2.31647 0.00744859 -2.72562 0.570065 
0.0421166 104.207 2.34514 -0.0419423 -2.75565 0.469369 
